# xmcd
#
# Track frame offsets: 
#        150
#        17952
#        45950
#        60045
#        92632
#        116397
#        147105
#        167737
#        191670
#        214695
#        229372
#        251727
#        268655
#        296565
#        311750
#
# Disc length: 4330 seconds
#
# Revision: 0
# Processed by: cddbd v1.5.2PL0 Copyright (c) Steve Scherf et al.
# Submitted via: ExactAudioCopy v0.99pb4
#
DISCID=d110e80f
DTITLE=Various Artist - Rattlesnake Guitar - The Music of Peter Green Disc 1
DYEAR=1997
DGENRE=
TTITLE0=Black Magic Woman
TTITLE1=Love That Burns
TTITLE2=Stop Messin' Round
TTITLE3=Looking For Somebody
TTITLE4=Cryin' Won't Bring You Back
TTITLE5=Leaving Town Blues
TTITLE6=If You Be My Baby
TTITLE7=Rambling Pony
TTITLE8=The Green Manalishi
TTITLE9=Hellhound On My Trail
TTITLE10=I Loved Another Woman
TTITLE11=The Same Way
TTITLE12=Drifting
TTITLE13=The Super-Natural
TTITLE14=Man Of The World
EXTD=
EXTT0=
EXTT1=
EXTT2=
EXTT3=
EXTT4=
EXTT5=
EXTT6=
EXTT7=
EXTT8=
EXTT9=
EXTT10=
EXTT11=
EXTT12=
EXTT13=
EXTT14=
PLAYORDER=
